<svg version="1.1" id="Layer_1" xmlns="http://www.w3.org/2000/svg" xmlns:xlink="http://www.w3.org/1999/xlink" x="0px" y="0px"
	 width="100%" viewBox="0 0 1000 1000" enable-background="new 0 0 1000 1000" xml:space="preserve">
<path fill="#FFFFFF" opacity="1.000000" stroke="none" 
	d="
M1001.000000,3.000000 
	C1001.000000,211.361374 1001.000000,419.722748 1000.551147,628.606323 
	C996.311523,628.731384 992.521912,628.322021 988.729736,627.939087 
	C965.966125,625.640259 943.242188,622.761292 920.428284,621.193420 
	C888.141235,618.974609 855.802551,617.262695 823.457458,616.210388 
	C798.365601,615.393982 773.230164,615.919067 748.152344,615.467896 
	C754.496887,587.596069 755.781677,559.900940 752.156128,531.899597 
	C748.286499,502.013855 739.059143,473.950012 724.341003,447.712189 
	C710.798645,423.570343 693.674988,402.327576 672.735718,384.104309 
	C650.909363,365.108978 626.610474,350.265503 599.570435,340.144775 
	C562.073242,326.110077 523.406799,320.993439 483.484070,325.908356 
	C457.866638,329.062134 433.264252,335.687531 409.912720,346.597290 
	C363.656891,368.207947 327.353180,400.908875 301.853424,445.249512 
	C274.413971,492.963074 265.224365,544.244263 273.221252,598.556274 
	C276.928284,623.732971 284.843750,647.674988 296.662659,670.276001 
	C299.044586,674.830872 301.282318,679.461182 303.276794,684.293335 
	C302.364410,684.810547 301.782440,685.152771 301.156128,685.362915 
	C282.148224,691.741516 262.897186,697.482544 244.185272,704.634338 
	C221.257431,713.397339 198.599823,722.931763 176.149399,732.864990 
	C140.015121,748.852722 105.179146,767.382751 71.827469,788.612976 
	C47.001194,804.416321 23.286182,821.749084 1.000000,841.000000 
	C1.000000,561.971985 1.000000,282.943939 1.453632,3.457572 
	C334.938171,2.999491 667.969116,2.999746 1001.000000,3.000000 
M241.626465,313.872925 
	C246.474564,318.674744 251.299500,323.500244 256.175934,328.273102 
	C264.611572,336.529602 272.998688,344.838470 281.570343,352.951935 
	C285.351349,356.530762 289.979279,356.758820 294.597382,354.645416 
	C299.391815,352.451355 302.795074,348.607178 301.779724,343.307770 
	C301.024994,339.368347 299.011078,335.028870 296.203491,332.222870 
	C266.659332,302.696167 236.849411,273.435211 207.088547,244.125595 
	C204.485046,241.561554 201.876999,238.950974 198.975327,236.752274 
	C194.094513,233.053894 187.749451,233.547455 183.410645,237.606186 
	C178.631241,242.077057 177.730377,248.561722 181.378128,253.863007 
	C182.778595,255.898285 184.550659,257.709869 186.319992,259.454407 
	C204.568832,277.447540 222.851807,295.405975 241.626465,313.872925 
M775.694946,285.195343 
	C774.987732,285.900635 774.282898,286.608398 773.572998,287.310883 
	C757.955627,302.766022 742.287964,318.170776 726.744263,333.699554 
	C720.444092,339.993652 720.774536,348.325043 727.214478,353.223358 
	C732.585510,357.308502 739.177856,356.730438 744.800720,351.334106 
	C752.125916,344.304138 759.256470,337.071655 766.487549,329.943329 
	C791.023743,305.755646 815.551758,281.559540 840.126465,257.411011 
	C843.494995,254.100922 845.837097,250.490341 845.149841,245.543335 
	C844.413757,240.244934 841.399963,236.722198 836.436829,234.977234 
	C831.068298,233.089767 826.671936,235.132309 822.866638,238.864334 
	C807.299683,254.131424 791.751953,269.418152 775.694946,285.195343 
M51.785370,552.078857 
	C46.847263,556.200439 45.441746,561.379211 47.747952,567.300842 
	C50.061356,573.240906 54.964905,575.001465 60.992870,574.993835 
	C105.939407,574.937012 150.886063,574.985413 195.832626,574.940369 
	C204.499176,574.931702 209.912308,569.880798 209.868896,562.181885 
	C209.827393,554.817444 204.398132,549.929993 195.934387,549.922974 
	C150.821350,549.885803 105.708191,549.875122 60.595345,549.978516 
	C57.870441,549.984741 55.147976,551.055176 51.785370,552.078857 
M966.933716,574.859863 
	C974.452209,573.236572 978.520935,568.220337 977.983093,561.237183 
	C977.450378,554.320801 972.459717,549.941162 964.639038,549.932556 
	C919.315918,549.882812 873.992737,549.883179 828.669617,549.924194 
	C820.020264,549.932007 814.946045,554.635376 814.917542,562.328674 
	C814.889709,569.834473 820.244751,574.932495 828.580078,574.938660 
	C874.402771,574.972595 920.225525,574.929199 966.933716,574.859863 
M524.960083,196.500000 
	C524.960083,183.176224 524.961670,169.852448 524.959656,156.528671 
	C524.957642,143.371445 525.067566,130.212814 524.906799,117.057510 
	C524.800781,108.383606 518.973022,103.145737 510.825592,103.964996 
	C504.182068,104.633034 499.904083,109.634621 499.883057,117.147728 
	C499.819672,139.797989 499.854828,162.448517 499.854462,185.098938 
	C499.854126,207.249725 499.812134,229.400650 499.881073,251.551239 
	C499.908997,260.528290 505.716095,265.884888 514.085754,264.932404 
	C520.484131,264.204254 524.911499,258.631165 524.936951,250.961609 
	C524.996094,233.141251 524.958435,215.320557 524.960083,196.500000 
M809.319458,427.926819 
	C806.087463,429.237183 802.807007,430.440704 799.633240,431.879364 
	C792.252014,435.225250 789.368408,441.730438 792.148132,448.482574 
	C794.880127,455.118835 801.904785,458.058044 809.168945,455.124969 
	C828.580444,447.287048 847.950378,439.342255 867.250549,431.234436 
	C875.015503,427.972473 877.746521,421.303162 874.758484,414.303741 
	C871.968811,407.769012 865.067810,405.151398 857.542419,408.176575 
	C841.662476,414.560181 825.863464,421.145111 809.319458,427.926819 
M379.246521,279.225342 
	C381.081238,281.528961 382.542694,284.338776 384.831635,286.026337 
	C389.047546,289.134613 394.867371,288.610260 398.808807,285.511719 
	C403.597870,281.746826 405.275208,275.987457 402.733826,269.817169 
	C395.001709,251.043991 387.085144,232.346527 379.189270,213.641159 
	C375.902710,205.855362 368.921906,202.534637 361.915039,205.281555 
	C355.171631,207.925186 352.391602,215.590698 355.632660,223.348221 
	C363.331879,241.776306 371.159790,260.150635 379.246521,279.225342 
M621.053955,271.639923 
	C619.372559,279.085205 622.326233,285.285645 628.609192,287.500092 
	C634.998413,289.751984 641.808960,286.661469 644.990906,279.812195 
	C647.301208,274.839172 649.313721,269.727417 651.442200,264.670471 
	C657.311646,250.725464 663.336304,236.842697 668.978394,222.806213 
	C672.690796,213.570526 667.820190,205.456650 658.484619,204.532028 
	C652.408630,203.930252 647.943237,207.364517 644.638611,215.235825 
	C636.851318,233.784317 629.078796,252.339020 621.053955,271.639923 
M195.422211,677.998596 
	C182.331711,683.363464 169.165619,688.553406 156.181091,694.163574 
	C149.185974,697.185913 146.783859,704.106018 149.719635,710.776123 
	C152.375122,716.809326 159.568756,719.775391 166.156601,717.114807 
	C185.602539,709.261292 205.017212,701.326416 224.355789,693.212830 
	C232.305222,689.877625 235.029984,683.491272 232.164490,676.344971 
	C229.399170,669.448486 222.761459,667.023560 214.623062,670.150513 
	C208.409317,672.538086 202.289932,675.171143 195.422211,677.998596 
M153.624924,428.909607 
	C154.474136,429.425629 155.272736,430.063782 156.180008,430.439728 
	C176.285736,438.770630 196.360641,447.178864 216.544708,455.316162 
	C222.729034,457.809357 230.006104,454.406311 232.390060,448.584412 
	C235.120102,441.917297 232.570587,434.884705 225.649796,431.979919 
	C206.047867,423.752625 186.354309,415.739166 166.614487,407.847473 
	C160.370697,405.351288 154.250732,407.307922 151.075485,412.095428 
	C147.685043,417.207428 148.405502,423.142792 153.624924,428.909607 
z"/>
<path fill="#94D669" opacity="1.000000" stroke="none" 
	d="
M1.000000,841.468628 
	C23.286182,821.749084 47.001194,804.416321 71.827469,788.612976 
	C105.179146,767.382751 140.015121,748.852722 176.149399,732.864990 
	C198.599823,722.931763 221.257431,713.397339 244.185272,704.634338 
	C262.897186,697.482544 282.148224,691.741516 301.156128,685.362915 
	C301.782440,685.152771 302.364410,684.810547 303.610199,684.274963 
	C318.510132,679.951172 332.759216,675.854980 347.026306,671.822693 
	C357.172760,668.955139 367.294525,665.977783 377.519958,663.420044 
	C384.849091,661.586670 392.331573,660.366394 399.721527,659.210815 
	C391.010834,667.477722 382.324280,675.406372 373.437897,683.517456 
	C378.527710,689.107117 383.316193,694.365906 388.252533,699.786987 
	C389.695038,698.515869 390.816162,697.556274 391.906525,696.562988 
	C409.731903,680.325806 427.553314,664.084412 445.822571,647.859192 
	C456.373505,646.122498 466.474121,644.351074 476.582245,642.623108 
	C493.556854,639.721313 510.536194,636.847107 527.694336,634.290405 
	C532.651794,655.191284 525.191833,671.271118 509.577606,683.755005 
	C514.976562,688.982849 520.043640,693.889221 525.227295,698.908508 
	C525.421814,698.756348 525.965698,698.384277 526.448730,697.945190 
	C546.349609,679.855042 555.705200,658.028870 550.572754,630.929443 
	C560.813293,629.627136 570.626770,628.094849 580.493713,627.083862 
	C596.135925,625.481323 611.807800,624.154541 627.478149,622.843750 
	C647.447388,621.173340 667.407776,619.290955 687.408691,618.135864 
	C707.620483,616.968689 727.877075,616.578491 748.114075,615.847900 
	C773.230164,615.919067 798.365601,615.393982 823.457458,616.210388 
	C855.802551,617.262695 888.141235,618.974609 920.428284,621.193420 
	C943.242188,622.761292 965.966125,625.640259 988.729736,627.939087 
	C992.521912,628.322021 996.311523,628.731384 1000.551147,629.064270 
	C1001.000000,752.964600 1001.000000,876.929138 1001.000000,1000.946045 
	C667.666687,1000.946045 334.333344,1000.946045 1.000000,1000.946045 
	C1.000000,947.907166 1.000000,894.922241 1.000000,841.468628 
z"/>
<path fill="#E7E8EC" opacity="1.000000" stroke="none" 
	d="
M1001.000000,2.499999 
	C667.969116,2.999746 334.938171,2.999491 1.453632,2.999619 
	C1.333333,2.333333 1.548027,1.216341 2.023962,1.090954 
	C3.114909,0.803541 4.333333,1.000000 5.500000,1.000000 
	C335.833344,1.000000 666.166687,0.998674 996.500000,1.041235 
	C998.000061,1.041428 999.500000,1.666664 1001.000000,2.499999 
z"/>
<path fill="#F9D782" opacity="1.000000" stroke="none" 
	d="
M399.745636,658.872559 
	C392.331573,660.366394 384.849091,661.586670 377.519958,663.420044 
	C367.294525,665.977783 357.172760,668.955139 347.026306,671.822693 
	C332.759216,675.854980 318.510132,679.951172 303.919983,684.038330 
	C301.282318,679.461182 299.044586,674.830872 296.662659,670.276001 
	C284.843750,647.674988 276.928284,623.732971 273.221252,598.556274 
	C265.224365,544.244263 274.413971,492.963074 301.853424,445.249512 
	C327.353180,400.908875 363.656891,368.207947 409.912720,346.597290 
	C433.264252,335.687531 457.866638,329.062134 483.484070,325.908356 
	C523.406799,320.993439 562.073242,326.110077 599.570435,340.144775 
	C626.610474,350.265503 650.909363,365.108978 672.735718,384.104309 
	C693.674988,402.327576 710.798645,423.570343 724.341003,447.712189 
	C739.059143,473.950012 748.286499,502.013855 752.156128,531.899597 
	C755.781677,559.900940 754.496887,587.596069 748.152344,615.467957 
	C727.877075,616.578491 707.620483,616.968689 687.408691,618.135864 
	C667.407776,619.290955 647.447388,621.173340 627.478149,622.843750 
	C611.807800,624.154541 596.135925,625.481323 580.493713,627.083862 
	C570.626770,628.094849 560.813293,629.627136 550.440247,630.576050 
	C545.621582,616.778381 538.754150,604.944336 528.089355,594.973633 
	C522.567871,599.821106 517.225891,604.510986 511.711548,609.352173 
	C518.987244,616.475281 524.909607,624.174316 527.513550,633.961304 
	C510.536194,636.847107 493.556854,639.721313 476.582245,642.623108 
	C466.474121,644.351074 456.373505,646.122498 445.998688,647.544678 
	C480.843597,615.101013 515.959351,582.987000 551.189514,550.768433 
	C567.460999,561.460815 584.657104,568.498718 604.484314,564.923035 
	C624.086731,561.387878 639.589600,551.269287 651.508240,534.909119 
	C646.164062,529.936768 641.094299,525.219727 635.851929,520.342163 
	C634.486694,522.005554 633.469727,523.297852 632.397644,524.542664 
	C619.261475,539.795837 603.067749,546.671204 583.016418,541.839905 
	C569.484802,538.579529 559.509827,529.945557 551.065674,519.252808 
	C534.529358,498.313110 513.008362,488.696198 486.304626,490.957214 
	C467.677094,492.534393 453.648987,502.996735 439.827271,514.332947 
	C444.720337,520.201721 449.256012,525.641846 453.802277,531.094604 
	C487.298492,499.958618 518.400635,512.194519 536.083313,535.807739 
	C490.656647,576.812012 445.201141,617.842285 399.745636,658.872559 
M606.137085,466.164337 
	C599.757141,463.747772 593.304932,463.183807 586.658569,465.098907 
	C570.991638,469.613129 561.630310,486.024231 566.031799,501.396851 
	C570.527039,517.097046 587.327393,526.878845 602.527832,522.646301 
	C614.643188,519.272827 623.556946,508.683624 624.856812,496.120514 
	C626.081787,484.280334 618.992737,472.651886 606.137085,466.164337 
z"/>
<path fill="#CBA448" opacity="1.000000" stroke="none" 
	d="
M241.375870,313.623535 
	C222.851807,295.405975 204.568832,277.447540 186.319992,259.454407 
	C184.550659,257.709869 182.778595,255.898285 181.378128,253.863007 
	C177.730377,248.561722 178.631241,242.077057 183.410645,237.606186 
	C187.749451,233.547455 194.094513,233.053894 198.975327,236.752274 
	C201.876999,238.950974 204.485046,241.561554 207.088547,244.125595 
	C236.849411,273.435211 266.659332,302.696167 296.203491,332.222870 
	C299.011078,335.028870 301.024994,339.368347 301.779724,343.307770 
	C302.795074,348.607178 299.391815,352.451355 294.597382,354.645416 
	C289.979279,356.758820 285.351349,356.530762 281.570343,352.951935 
	C272.998688,344.838470 264.611572,336.529602 256.175934,328.273102 
	C251.299500,323.500244 246.474564,318.674744 241.375870,313.623535 
z"/>
<path fill="#CBA448" opacity="1.000000" stroke="none" 
	d="
M775.946045,284.946472 
	C791.751953,269.418152 807.299683,254.131424 822.866638,238.864334 
	C826.671936,235.132309 831.068298,233.089767 836.436829,234.977234 
	C841.399963,236.722198 844.413757,240.244934 845.149841,245.543335 
	C845.837097,250.490341 843.494995,254.100922 840.126465,257.411011 
	C815.551758,281.559540 791.023743,305.755646 766.487549,329.943329 
	C759.256470,337.071655 752.125916,344.304138 744.800720,351.334106 
	C739.177856,356.730438 732.585510,357.308502 727.214478,353.223358 
	C720.774536,348.325043 720.444092,339.993652 726.744263,333.699554 
	C742.287964,318.170776 757.955627,302.766022 773.572998,287.310883 
	C774.282898,286.608398 774.987732,285.900635 775.946045,284.946472 
z"/>
<path fill="#CBA448" opacity="1.000000" stroke="none" 
	d="
M52.104874,551.854614 
	C55.147976,551.055176 57.870441,549.984741 60.595345,549.978516 
	C105.708191,549.875122 150.821350,549.885803 195.934387,549.922974 
	C204.398132,549.929993 209.827393,554.817444 209.868896,562.181885 
	C209.912308,569.880798 204.499176,574.931702 195.832626,574.940369 
	C150.886063,574.985413 105.939407,574.937012 60.992870,574.993835 
	C54.964905,575.001465 50.061356,573.240906 47.747952,567.300842 
	C45.441746,561.379211 46.847263,556.200439 52.104874,551.854614 
z"/>
<path fill="#CBA447" opacity="1.000000" stroke="none" 
	d="
M966.490967,574.886108 
	C920.225525,574.929199 874.402771,574.972595 828.580078,574.938660 
	C820.244751,574.932495 814.889709,569.834473 814.917542,562.328674 
	C814.946045,554.635376 820.020264,549.932007 828.669617,549.924194 
	C873.992737,549.883179 919.315918,549.882812 964.639038,549.932556 
	C972.459717,549.941162 977.450378,554.320801 977.983093,561.237183 
	C978.520935,568.220337 974.452209,573.236572 966.490967,574.886108 
z"/>
<path fill="#CBA347" opacity="1.000000" stroke="none" 
	d="
M524.960083,197.000000 
	C524.958435,215.320557 524.996094,233.141251 524.936951,250.961609 
	C524.911499,258.631165 520.484131,264.204254 514.085754,264.932404 
	C505.716095,265.884888 499.908997,260.528290 499.881073,251.551239 
	C499.812134,229.400650 499.854126,207.249725 499.854462,185.098938 
	C499.854828,162.448517 499.819672,139.797989 499.883057,117.147728 
	C499.904083,109.634621 504.182068,104.633034 510.825592,103.964996 
	C518.973022,103.145737 524.800781,108.383606 524.906799,117.057510 
	C525.067566,130.212814 524.957642,143.371445 524.959656,156.528671 
	C524.961670,169.852448 524.960083,183.176224 524.960083,197.000000 
z"/>
<path fill="#CBA448" opacity="1.000000" stroke="none" 
	d="
M809.675354,427.787140 
	C825.863464,421.145111 841.662476,414.560181 857.542419,408.176575 
	C865.067810,405.151398 871.968811,407.769012 874.758484,414.303741 
	C877.746521,421.303162 875.015503,427.972473 867.250549,431.234436 
	C847.950378,439.342255 828.580444,447.287048 809.168945,455.124969 
	C801.904785,458.058044 794.880127,455.118835 792.148132,448.482574 
	C789.368408,441.730438 792.252014,435.225250 799.633240,431.879364 
	C802.807007,430.440704 806.087463,429.237183 809.675354,427.787140 
z"/>
<path fill="#CBA448" opacity="1.000000" stroke="none" 
	d="
M379.091125,278.885986 
	C371.159790,260.150635 363.331879,241.776306 355.632660,223.348221 
	C352.391602,215.590698 355.171631,207.925186 361.915039,205.281555 
	C368.921906,202.534637 375.902710,205.855362 379.189270,213.641159 
	C387.085144,232.346527 395.001709,251.043991 402.733826,269.817169 
	C405.275208,275.987457 403.597870,281.746826 398.808807,285.511719 
	C394.867371,288.610260 389.047546,289.134613 384.831635,286.026337 
	C382.542694,284.338776 381.081238,281.528961 379.091125,278.885986 
z"/>
<path fill="#CBA448" opacity="1.000000" stroke="none" 
	d="
M621.177124,271.265564 
	C629.078796,252.339020 636.851318,233.784317 644.638611,215.235825 
	C647.943237,207.364517 652.408630,203.930252 658.484619,204.532028 
	C667.820190,205.456650 672.690796,213.570526 668.978394,222.806213 
	C663.336304,236.842697 657.311646,250.725464 651.442200,264.670471 
	C649.313721,269.727417 647.301208,274.839172 644.990906,279.812195 
	C641.808960,286.661469 634.998413,289.751984 628.609192,287.500092 
	C622.326233,285.285645 619.372559,279.085205 621.177124,271.265564 
z"/>
<path fill="#CBA448" opacity="1.000000" stroke="none" 
	d="
M195.775391,677.846802 
	C202.289932,675.171143 208.409317,672.538086 214.623062,670.150513 
	C222.761459,667.023560 229.399170,669.448486 232.164490,676.344971 
	C235.029984,683.491272 232.305222,689.877625 224.355789,693.212830 
	C205.017212,701.326416 185.602539,709.261292 166.156601,717.114807 
	C159.568756,719.775391 152.375122,716.809326 149.719635,710.776123 
	C146.783859,704.106018 149.185974,697.185913 156.181091,694.163574 
	C169.165619,688.553406 182.331711,683.363464 195.775391,677.846802 
z"/>
<path fill="#CBA448" opacity="1.000000" stroke="none" 
	d="
M153.342285,428.675537 
	C148.405502,423.142792 147.685043,417.207428 151.075485,412.095428 
	C154.250732,407.307922 160.370697,405.351288 166.614487,407.847473 
	C186.354309,415.739166 206.047867,423.752625 225.649796,431.979919 
	C232.570587,434.884705 235.120102,441.917297 232.390060,448.584412 
	C230.006104,454.406311 222.729034,457.809357 216.544708,455.316162 
	C196.360641,447.178864 176.285736,438.770630 156.180008,430.439728 
	C155.272736,430.063782 154.474136,429.425629 153.342285,428.675537 
z"/>
<path fill="#020201" opacity="1.000000" stroke="none" 
	d="
M399.721527,659.210815 
	C445.201141,617.842285 490.656647,576.812012 536.083313,535.807739 
	C518.400635,512.194519 487.298492,499.958618 453.802277,531.094604 
	C449.256012,525.641846 444.720337,520.201721 439.827271,514.332947 
	C453.648987,502.996735 467.677094,492.534393 486.304626,490.957214 
	C513.008362,488.696198 534.529358,498.313110 551.065674,519.252808 
	C559.509827,529.945557 569.484802,538.579529 583.016418,541.839905 
	C603.067749,546.671204 619.261475,539.795837 632.397644,524.542664 
	C633.469727,523.297852 634.486694,522.005554 635.851929,520.342163 
	C641.094299,525.219727 646.164062,529.936768 651.508240,534.909119 
	C639.589600,551.269287 624.086731,561.387878 604.484314,564.923035 
	C584.657104,568.498718 567.460999,561.460815 551.189514,550.768433 
	C515.959351,582.987000 480.843597,615.101013 445.551758,647.529480 
	C427.553314,664.084412 409.731903,680.325806 391.906525,696.562988 
	C390.816162,697.556274 389.695038,698.515869 388.252533,699.786987 
	C383.316193,694.365906 378.527710,689.107117 373.437897,683.517456 
	C382.324280,675.406372 391.010834,667.477722 399.721527,659.210815 
z"/>
<path fill="#020201" opacity="1.000000" stroke="none" 
	d="
M527.694336,634.290405 
	C524.909607,624.174316 518.987244,616.475281 511.711548,609.352173 
	C517.225891,604.510986 522.567871,599.821106 528.089355,594.973633 
	C538.754150,604.944336 545.621582,616.778381 550.037109,630.579956 
	C555.705200,658.028870 546.349609,679.855042 526.448730,697.945190 
	C525.965698,698.384277 525.421814,698.756348 525.227295,698.908508 
	C520.043640,693.889221 514.976562,688.982849 509.577606,683.755005 
	C525.191833,671.271118 532.651794,655.191284 527.694336,634.290405 
z"/>
<path fill="#020201" opacity="1.000000" stroke="none" 
	d="
M606.478027,466.348358 
	C618.992737,472.651886 626.081787,484.280334 624.856812,496.120514 
	C623.556946,508.683624 614.643188,519.272827 602.527832,522.646301 
	C587.327393,526.878845 570.527039,517.097046 566.031799,501.396851 
	C561.630310,486.024231 570.991638,469.613129 586.658569,465.098907 
	C593.304932,463.183807 599.757141,463.747772 606.478027,466.348358 
z"/>
</svg>